<svg xmlns="http://www.w3.org/2000/svg" viewBox="0 0 37.17 38.78"><title>cake</title><path d="M412.61,510l0-.48c0-.74-5.91-10.5-8-10.5a33.87,33.87,0,0,0-4.33,1,5.59,5.59,0,0,0-6.5-3.48,15.15,15.15,0,0,0-6.18-7l-1,1.75a13.26,13.26,0,0,1,5.3,6,5.6,5.6,0,0,0-2.42,5.77c-12.08,3.63-12.69,4.37-12.9,4.95-1.16,2.52-.92,17,0.32,17.94,0.91,0.68,26.11,2.35,31.48,2.35,3,0,3.63-.21,4-0.73s1-1.41.22-17.61M395,498.38a3.62,3.62,0,1,1-3.62,3.62,3.63,3.63,0,0,1,3.62-3.62m0,9.25a5.63,5.63,0,0,0,5.62-5.62s0,0,0-.06c1.87-.5,3.28-0.85,3.84-0.93,1.22,0.82,5.3,7.14,6.09,8.64l-31.88-.83c1.55-.73,6.42-2.32,11.54-3.87a5.62,5.62,0,0,0,4.78,2.68m15.82,18.58a18.83,18.83,0,0,1-2.44.1c-7.49,0-26.43-1.59-30.06-2a81.75,81.75,0,0,1-.35-13.48l32.72,0.85c0.51,10.93.25,13.85,0.13,14.56" transform="translate(-375.82 -489.54)" style="fill:#e59205"/><path d="M381.74,512.92h-1.06c-0.08,3.2,0,7.19.13,9.92h1.11c-0.12-2.48-.23-6.71-0.18-9.92" transform="translate(-375.82 -489.54)" style="fill:#e59205"/></svg>