<?xml version="1.0" encoding="utf-8"?>
<!-- Generated by IcoMoon.io -->
<!DOCTYPE svg PUBLIC "-//W3C//DTD SVG 1.1//EN" "http://www.w3.org/Graphics/SVG/1.1/DTD/svg11.dtd">
<svg version="1.1" xmlns="http://www.w3.org/2000/svg" xmlns:xlink="http://www.w3.org/1999/xlink" width="31" height="32" viewBox="0 0 31 32">
<path fill="#e59205" d="M30.358 16.883v-0.396c0-0.611-4.877-8.664-6.601-8.664 1.046-0.27-1.428 0.154-3.771 0.878-0.477-1.815-2.155-3.044-4.12-3.044-0.371 0-0.731 0.044-1.077 0.126-0.287-1.538-2.32-4.136-5.011-5.751l-0.882 1.413c1.189 0.396 3.22 2.391 4.346 4.882-1.236 0.907-2.057 2.324-2.057 3.932 0 0.318 0.032 0.628 0.093 0.928-9.973 2.966-10.476 3.576-10.65 4.055-0.957 2.079-0.759 14.028 0.264 14.803 0.751 0.561 21.545 1.939 25.976 1.939 2.476 0 2.995-0.173 3.301-0.602s0.825-1.163 0.182-14.531zM15.827 7.294c1.65 0 2.987 1.337 2.987 2.987s-1.337 2.987-2.987 2.987c-1.65 0-2.987-1.337-2.987-2.987 0.005-1.648 1.339-2.982 2.987-2.987zM15.827 14.927c2.559-0.005 4.633-2.078 4.637-4.637s0-0 0-0.050c1.543-0.413 2.707-0.701 3.169-0.767 1.007 0.677 4.373 5.892 5.025 7.129l-26.306-0.685c1.279-0.602 5.298-1.914 9.522-3.193 0.827 1.332 2.283 2.209 3.944 2.211zM28.873 30.267c-0.492 0.055-1.063 0.087-1.642 0.087-0.131 0-0.261-0.002-0.391-0.005-6.161 0-21.79-1.312-24.785-1.65-0.253-2.192-0.397-4.733-0.397-7.307 0-1.343 0.039-2.676 0.117-3.999l26.991 0.884c0.421 9.019 0.206 11.429 0.107 12.014z"></path>
<path fill="#e59205" d="M4.885 19.292h-0.875c-0.066 2.641 0 5.933 0.107 8.186h0.916c-0.099-2.046-0.19-5.537-0.149-8.186z"></path>
</svg>
