<svg xmlns="http://www.w3.org/2000/svg" viewBox="0 0 41.57 37.32"><title>cheese</title><path d="M644.32,402.08c-1.16-2.5-8.26-8.64-11-9.53a15.38,15.38,0,0,0-4.7-.94,10.74,10.74,0,0,0-4.15,1c-1.1.44-3.65,2.51-7.72,5.85-1.48,1.22-3,2.46-4.36,3.54a49.91,49.91,0,0,0-6.61,6l-0.6.84c-0.08.32-.23,0.6-0.34,0.91a2.36,2.36,0,0,0-.06.25,6.13,6.13,0,0,1-.08,1v3.9a1.27,1.27,0,0,0,1.52,1.21l0.49,0,0.55,0a1.28,1.28,0,0,1,.88.17,0.92,0.92,0,0,1,.07.6c-0.11,1-.43,1-0.74,1a4.67,4.67,0,0,1-.73-0.08,1.73,1.73,0,0,0-1.68.29,1.22,1.22,0,0,0-.35.87v7.33a0.44,0.44,0,0,1,0,.12,2.1,2.1,0,0,0,.06.39,2.88,2.88,0,0,0,1.92,2c0.18,0.05.36,0.09,0.54,0.13h0.09c5.07-.5,32.8-3.24,34.7-3.81,4-1.2,4.16-5.91,4.21-7.46,0.09-2.46-.71-13-1.93-15.58m-0.07,15.51c-0.12,3.3-1,5.08-2.79,5.62-1.34.4-20.58,2.38-33.82,3.68l-0.11,0-0.07,0H607.4l-0.09,0h-0.12a0.45,0.45,0,0,1-.46-0.39l0,0v-6.71a5.25,5.25,0,0,0,.76.06c0.91,0,2.47-.37,2.73-2.82a2.66,2.66,0,0,0-.57-2.14,3.07,3.07,0,0,0-2.36-.83h-0.56v-2.55a2.76,2.76,0,0,1,0-.44,2.54,2.54,0,0,1,0-.5v0h0s0,0,0,0,0-.09,0-0.13h0s0-.07,0-0.11v-0.14l0-.06a2.7,2.7,0,0,1,1.14-1.42,57.27,57.27,0,0,1,5.75-5.13c1.38-1.09,2.9-2.34,4.39-3.56,3-2.43,6.33-5.19,7.2-5.54a8.68,8.68,0,0,1,3.4-.82,13.64,13.64,0,0,1,4.09.84c1.7,0.55,5.84,3.89,8.2,6.39l-11.83,2.3c-2.35.66-4.78,1.13-7,2a0.25,0.25,0,0,0,0,.29l0.43,0,19.19-3.73a6.26,6.26,0,0,1,.84,1.21c1,2.11,1.83,12.2,1.74,14.67" transform="translate(-604.69 -391.61)" style="fill:#e59205"/><path d="M637.13,406.91a3.55,3.55,0,1,0,3.47,3.55,3.51,3.51,0,0,0-3.47-3.55m0,6.09a2.55,2.55,0,1,1,2.47-2.55,2.51,2.51,0,0,1-2.47,2.55" transform="translate(-604.69 -391.61)" style="fill:#e59205"/><path d="M629.46,414.91a2.84,2.84,0,1,0,2.84,2.84,2.84,2.84,0,0,0-2.84-2.84m0,4.67a1.84,1.84,0,1,1,1.84-1.84,1.84,1.84,0,0,1-1.84,1.84" transform="translate(-604.69 -391.61)" style="fill:#e59205"/><path d="M619.4,414.91a2.12,2.12,0,1,0,2.12,2.12,2.12,2.12,0,0,0-2.12-2.12m0,3.24a1.12,1.12,0,1,1,1.12-1.12,1.12,1.12,0,0,1-1.12,1.12" transform="translate(-604.69 -391.61)" style="fill:#e59205"/><path d="M613.3,420.75a1.8,1.8,0,1,0,1.8,1.8,1.8,1.8,0,0,0-1.8-1.8m0,2.6a0.8,0.8,0,1,1,.8-0.8,0.8,0.8,0,0,1-.8.8" transform="translate(-604.69 -391.61)" style="fill:#e59205"/></svg>