<?xml version="1.0" encoding="utf-8"?>
<!-- Generated by IcoMoon.io -->
<!DOCTYPE svg PUBLIC "-//W3C//DTD SVG 1.1//EN" "http://www.w3.org/Graphics/SVG/1.1/DTD/svg11.dtd">
<svg version="1.1" xmlns="http://www.w3.org/2000/svg" xmlns:xlink="http://www.w3.org/1999/xlink" width="36" height="32" viewBox="0 0 36 32">
<path fill="#e59205" d="M33.981 8.977c-0.995-2.144-7.083-7.408-9.432-8.171-0.912-0.393-2.422-0.738-4.003-0.805-1.167 0.008-2.472 0.325-3.641 0.88-0.887 0.353-3.074 2.128-6.564 4.992-1.269 1.046-2.572 2.109-3.738 3.035 4.718-3.75-1.045 0.136-5.641 5.115l-0.541 0.749c-0.069 0.274-0.197 0.514-0.292 0.78 0.038-0.137-0.017 0.029-0.049 0.202-0.002 0.016-0.002 0.020-0.002 0.024 0 0.299-0.025 0.592-0.073 0.877l0.004 3.313c0.017 0.588 0.498 1.059 1.089 1.059 0.076 0 0.15-0.008 0.222-0.023l0.413 0.001h0.472c0.055-0.010 0.118-0.015 0.182-0.015 0.212 0 0.409 0.060 0.577 0.164 0.045 0.098 0.074 0.216 0.074 0.341 0 0.061-0.007 0.12-0.020 0.176-0.093 0.852-0.368 0.852-0.633 0.852-0.153 0.001-0.406-0.025-0.651-0.073-0.124-0.051-0.296-0.083-0.475-0.083-0.358 0-0.686 0.127-0.942 0.338-0.183 0.187-0.298 0.446-0.298 0.731 0 0.004 0 0.009 0 0.013v6.284c0.002 0.015 0.004 0.033 0.004 0.051s-0.001 0.036-0.004 0.053c-0.001 0.060 0.018 0.206 0.054 0.345 0.161 0.741 0.798 1.432 1.626 1.698 0.172 0.048 0.326 0.082 0.481 0.116h0.077c4.347-0.429 28.124-2.778 29.753-3.267 3.43-1.029 3.567-5.068 3.61-6.397 0.077-2.109-0.609-11.147-1.655-13.359zM33.904 22.277c-0.103 2.83-0.857 4.356-2.392 4.819-1.149 0.343-17.646 2.041-28.999 3.155h-0.369c-0.004 0-0.008 0-0.012 0-0.195 0-0.356-0.145-0.382-0.333l-0-0.002v-5.753c0.178 0.030 0.412 0.050 0.65 0.051 0.782 0 2.119-0.317 2.342-2.418 0.021-0.115 0.032-0.248 0.032-0.384 0-0.553-0.197-1.060-0.524-1.455-0.468-0.442-1.105-0.717-1.806-0.717-0.075 0-0.15 0.003-0.224 0.009l-0.471-0.001v-2.186c-0.005-0.056-0.008-0.122-0.008-0.189s0.003-0.132 0.008-0.197c-0.007-0.056-0.011-0.13-0.011-0.206s0.004-0.15 0.011-0.224l-0.001 0.009s0 0 0 0 0-0.077 0-0.111v0s0-0.060 0-0.094v-0.171c0.068-0.369 0.45-0.89 0.968-1.212-5.74 6.066-0.98 0.231 4.833-4.323 1.291-1.016 2.594-2.087 3.871-3.133 2.572-2.084 5.428-4.45 6.174-4.75 0.733-0.379 1.787-0.664 2.903-0.703 0.993 0.003 2.348 0.27 3.6 0.747 1.377 0.445 4.927 3.309 6.951 5.452l-10.144 1.972c-2.015 0.566-4.099 0.969-6.002 1.715-0.025 0.035-0.040 0.078-0.040 0.124s0.015 0.090 0.040 0.125l0.368-0.001 16.454-3.198c-0.316-0.425 0.288 0.235 0.706 1.009 0.871 1.838 1.583 10.489 1.506 12.607z"></path>
<path fill="#e59205" d="M27.816 13.119c-0.020-0.001-0.044-0.001-0.069-0.001-1.681 0-3.044 1.363-3.044 3.044s1.363 3.044 3.044 3.044c1.681 0 3.044-1.362 3.044-3.043 0-0.010 0-0.022 0-0.035 0-1.65-1.328-2.99-2.974-3.009zM27.816 18.341c-0.020 0.001-0.044 0.001-0.069 0.001-1.208 0-2.186-0.979-2.186-2.186s0.979-2.187 2.186-2.187c1.207 0 2.186 0.978 2.186 2.185 0 0.010 0 0.022 0 0.035 0 1.177-0.944 2.133-2.116 2.152z"></path>
<path fill="#e59205" d="M21.239 19.979c-1.345 0-2.435 1.090-2.435 2.435s1.090 2.435 2.435 2.435c1.345 0 2.435-1.090 2.435-2.435 0 0 0 0 0 0 0-1.345-1.090-2.435-2.435-2.435 0 0 0 0 0 0zM21.239 23.983c-0.871 0-1.578-0.706-1.578-1.578s0.706-1.578 1.578-1.578c0.871 0 1.578 0.706 1.578 1.578 0 0 0 0 0 0 0 0.871-0.706 1.578-1.578 1.578 0 0 0 0 0 0z"></path>
<path fill="#e59205" d="M12.613 19.979c-1.004 0-1.818 0.814-1.818 1.818s0.814 1.818 1.818 1.818c1.004 0 1.818-0.814 1.818-1.818s-0.814-1.818-1.818-1.818c0 0 0 0 0 0zM12.613 22.757c-0.53 0-0.96-0.43-0.96-0.96s0.43-0.96 0.96-0.96c0.53 0 0.96 0.43 0.96 0.96s-0.43 0.96-0.96 0.96c0 0 0 0 0 0z"></path>
<path fill="#e59205" d="M7.383 24.986c0 0 0 0 0 0-0.852 0-1.543 0.691-1.543 1.543s0.691 1.543 1.543 1.543c0.852 0 1.543-0.691 1.543-1.543s-0.691-1.543-1.543-1.543zM7.383 27.215c0 0 0 0 0 0-0.379 0-0.686-0.307-0.686-0.686s0.307-0.686 0.686-0.686c0.379 0 0.686 0.307 0.686 0.686s-0.307 0.686-0.686 0.686z"></path>
</svg>
