<svg xmlns="http://www.w3.org/2000/svg" viewBox="0 0 40.47 38.95"><title>ice-cream</title><path d="M494.08,296.1a2,2,0,0,0-.76-1.33l-1-.74a2,2,0,0,0-2.81.36L481,305.54a24.89,24.89,0,0,0-1.93-2c-1.82-1.59-4.77-1.64-5.95-1.59a7.2,7.2,0,0,0-3.79,1.64c-0.34.28-.66,0.62-1,1a5.89,5.89,0,0,1-1.76,1.44,7.29,7.29,0,0,1-1.1.35c-0.23.06-.51,0.12-1,0.25l-0.19.06a9,9,0,0,0-2.94,1.24,8.29,8.29,0,0,0-2.8,2.79l-0.07.12a15.74,15.74,0,0,0-2.29,5.51h-0.58a2,2,0,0,0-2,2v0.35l6.14,7.73v4.25a2,2,0,0,0,2,2h21.31a2,2,0,0,0,2-2v-4.25l5.54-7.76v-0.32a2,2,0,0,0-2-2h-1.29a15.36,15.36,0,0,0-1.18-3.83l0-.1a16.77,16.77,0,0,0-1.78-2.64l9.34-12.1a2,2,0,0,0,.4-1.48m-11,34.48H461.77v-3.85h21.31v3.85Zm5.31-12.33-5.34,7.48H461.85l-5.94-7.48H488.4Zm-3.06-2H458.28a13.48,13.48,0,0,1,1.92-4.46l0.07-.12a6.37,6.37,0,0,1,2.2-2.17,7.1,7.1,0,0,1,2.38-1l0.19-.06c0.41-.12.67-0.18,0.88-0.23a9.38,9.38,0,0,0,1.33-.42,7.32,7.32,0,0,0,2.49-1.92c0.29-.29.56-0.58,0.84-0.82a5.23,5.23,0,0,1,2.58-1.17c0.73,0,3.23,0,4.55,1.1a20.87,20.87,0,0,1,1.67,1.76h0a2.84,2.84,0,0,1,.51.57,14.09,14.09,0,0,1,1.15,1.27c0.53,0.66,1.08,1.31,1.59,2a4,4,0,0,1,.44.68s0,0.07.06,0.1a1.58,1.58,0,0,1,.22.35,9.93,9.93,0,0,1,.89,1.33l0,0.1a18.7,18.7,0,0,1,1,3.1m-2.27-8.19-0.79-1,8.86-11.48,1,0.74Z" transform="translate(-453.63 -293.64)" style="fill:#e59205"/><path d="M464.33,311.79h-0.44a0.76,0.76,0,0,0-.76.76V313a0.76,0.76,0,0,0,.76.76h0.44a0.76,0.76,0,0,0,.76-0.76v-0.44a0.76,0.76,0,0,0-.76-0.76" transform="translate(-453.63 -293.64)" style="fill:#e59205"/><rect x="17.65" y="12.25" width="1.96" height="1.96" rx="0.76" ry="0.76" style="fill:#e59205"/><rect x="23.78" y="15.62" width="1.99" height="1.99" rx="0.77" ry="0.77" style="fill:#e59205"/><path d="M473,312.31h-0.44a0.75,0.75,0,0,0-.75.75v0.44a0.76,0.76,0,0,0,.75.76H473a0.76,0.76,0,0,0,.75-0.76v-0.44a0.75,0.75,0,0,0-.75-0.75" transform="translate(-453.63 -293.64)" style="fill:#e59205"/><polygon points="10.59 30.2 10.59 30.2 7.42 26.2 6.14 26.2 9.32 30.2 10.59 30.2" style="fill:#e59205"/></svg>