<?xml version="1.0" encoding="utf-8"?>
<!-- Generated by IcoMoon.io -->
<!DOCTYPE svg PUBLIC "-//W3C//DTD SVG 1.1//EN" "http://www.w3.org/Graphics/SVG/1.1/DTD/svg11.dtd">
<svg version="1.1" xmlns="http://www.w3.org/2000/svg" xmlns:xlink="http://www.w3.org/1999/xlink" width="33" height="32" viewBox="0 0 33 32">
<path fill="#e59205" d="M33.232 2.021c-0.028-0.394-0.266-0.813-0.621-1.090l-0.825-0.611c-0.275-0.215-0.626-0.345-1.007-0.345-0.528 0-0.998 0.249-1.299 0.637l-6.994 9.164c2.375 2.931 0.626 0.411-1.573-1.631-1.508-1.318-3.932-1.359-4.901-1.318-0.958 0.040-2.169 0.549-3.123 1.355-0.271 0.223-0.533 0.502-0.813 0.814 0.116 0.008-0.576 0.711-1.421 1.17 0.369-0.124-0.239 0.137-0.888 0.292-0.23 0.058-0.46 0.107-0.862 0.214l-0.156 0.049c-0.269-0.048-1.441 0.376-2.443 1.036-0.279-0.023-1.471 0.973-2.256 2.246l-0.074 0.128c-0.396 0.291-1.405 2.266-1.866 4.442l-0.492 0.084c-0.907 0-1.643 0.736-1.643 1.643v0.288l5.044 6.351v3.492c0 0.907 0.736 1.643 1.643 1.643h17.508c0.907 0 1.643-0.736 1.643-1.643v-3.492l4.551-6.375v-0.263c0-0.907-0.736-1.643-1.643-1.643h-1.060c0.083-0.181-0.326-1.777-1.002-3.224l0.033-0.005c0.844 1.377-0.135-0.565-1.481-2.192l7.692-9.918c0.214-0.275 0.342-0.624 0.342-1.004 0-0.075-0.005-0.148-0.015-0.22zM24.195 30.431h-17.508v-3.163h17.508v3.163zM28.558 20.301l-4.387 6.145h-17.417l-4.88-6.145h26.693zM26.044 18.658h-22.223c-0.071-0.415 0.584-2.192 1.602-3.704l0.032-0.059c0.009-0.257 0.789-1.174 1.784-1.77 0.105-0.157 0.978-0.611 1.94-0.827l0.195-0.057c0.337-0.099 0.55-0.148 0.723-0.189-0.45 0.142 0.378-0.051 1.144-0.364 0.115 0.088 1.193-0.607 1.987-1.55 0.246-0.247 0.468-0.486 0.698-0.683 0.361-0.381 1.18-0.814 2.095-0.958 0.624-0.003 2.678-0.003 3.762 0.901-2.341-2.071-0.285-0.508 1.352 1.421l0.021 0.025c-0.136-0.152 0.182 0.122 0.414 0.46-1.511-1.399-0.144-0.307 0.933 1.029 0.453 0.565 0.905 1.099 1.324 1.665-0.221-0.303 0.117 0.088 0.353 0.54s0.009 0.076 0.058 0.1c-0.052-0.084 0.086 0.085 0.177 0.28-0.711-0.904 0.115 0.005 0.713 1.060l0.021 0.123c-0.3-0.894 0.396 0.719 0.801 2.443zM24.105 11.921l-0.649-0.822 7.279-9.432 0.822 0.608z"></path>
<path fill="#e59205" d="M8.791 14.911h-0.361c-0.345 0-0.624 0.28-0.624 0.624v0.37c0 0.345 0.28 0.624 0.624 0.624h0.361c0.345 0 0.624-0.28 0.624-0.624v-0.361c0-0.345-0.28-0.624-0.624-0.624z"></path>
<path fill="#e59205" d="M15.125 10.064h0.361c0.345 0 0.624 0.28 0.624 0.624v0.361c0 0.345-0.28 0.624-0.624 0.624h-0.361c-0.345 0-0.624-0.28-0.624-0.624v-0.361c0-0.345 0.28-0.624 0.624-0.624z"></path>
<path fill="#e59205" d="M20.169 12.833h0.37c0.349 0 0.633 0.283 0.633 0.633v0.37c0 0.349-0.283 0.633-0.633 0.633h-0.37c-0.349 0-0.633-0.283-0.633-0.633v-0.37c0-0.349 0.283-0.633 0.633-0.633z"></path>
<path fill="#e59205" d="M15.914 15.339h-0.361c-0.34 0-0.616 0.276-0.616 0.616v0.362c0 0 0 0 0 0 0 0.342 0.275 0.62 0.616 0.624h0.362c0.341-0.005 0.616-0.282 0.616-0.624 0-0 0-0 0-0v-0.361c0-0.34-0.276-0.616-0.616-0.616z"></path>
<path fill="#e59205" d="M8.7 24.811v0l-2.604-3.286h-1.052l2.613 3.286h1.043z"></path>
</svg>
