<svg xmlns="http://www.w3.org/2000/svg" viewBox="0 0 47.17 37.42"><title>meat</title><path d="M399,401.31c-3.17,0-5.66,1.47-5.66,3.34S395.8,408,399,408s5.66-1.47,5.66-3.34-2.48-3.34-5.66-3.34m0,5.69c-2.52,0-4.66-1.07-4.66-2.34s2.13-2.34,4.66-2.34,4.66,1.07,4.66,2.34S401.49,407,399,407" transform="translate(-372.56 -392.19)" style="fill:#e59205"/><path d="M419.72,406.26a13.06,13.06,0,0,0-.54-3.18,18.37,18.37,0,0,0-.81-1.94,13.91,13.91,0,0,0-1.87-2.4,19.92,19.92,0,0,0-2.37-2,20.56,20.56,0,0,0-3-1.89,23.29,23.29,0,0,0-3.47-1.42,25.4,25.4,0,0,0-3.82-.89,27.23,27.23,0,0,0-8.18,0,25.42,25.42,0,0,0-3.82.89,23.34,23.34,0,0,0-3.47,1.42,20.62,20.62,0,0,0-3,1.89,15.91,15.91,0,0,0-2.42,2.21,14.82,14.82,0,0,0-1.81,2.57l-0.06.12a15.12,15.12,0,0,0-.8,2.43c-0.18.79-.32,1.71-0.5,3.1-0.5,1.22-1.77,1.9-3.12,2.62l-0.3.16c-1.4.75-3.51,1.88-3.71,4.5l0,4.6a9.36,9.36,0,0,0,.6,3.62,4.5,4.5,0,0,0,.76,1.22,11.24,11.24,0,0,0,5.42,3.64,34,34,0,0,0,7.15,1.66,57.78,57.78,0,0,0,6.83.46h1.42l2.25,0h1.63a44.76,44.76,0,0,0,4.74-.52,17,17,0,0,0,4.48-1.41,25.78,25.78,0,0,0,4.08-2.45,21.58,21.58,0,0,0,3.41-3.09,16.52,16.52,0,0,0,2.55-3.76,14.43,14.43,0,0,0,1.51-5.05l0.27-3.51,0.08-3.45v-0.07Zm-2.07,3.41-0.26,3.4a12.36,12.36,0,0,1-1.33,4.4,14.37,14.37,0,0,1-2.24,3.31,19.66,19.66,0,0,1-3.09,2.8,23.65,23.65,0,0,1-3.76,2.26,15.06,15.06,0,0,1-4,1.25,43.17,43.17,0,0,1-4.46.5H397c-1.06,0-2.29,0-3.62,0a55.5,55.5,0,0,1-6.59-.44,31.86,31.86,0,0,1-6.72-1.55,9.35,9.35,0,0,1-4.48-2.92l-0.13-.16a2.42,2.42,0,0,1-.42-0.68,7.44,7.44,0,0,1-.44-2.83l0-4.52c0.09-1.24.93-1.89,2.65-2.82l0.3-.16c1.57-.84,3.36-1.79,4.09-3.79l0.05-.22c0.18-1.4.31-2.29,0.48-3a13.1,13.1,0,0,1,.68-2.07,12.82,12.82,0,0,1,1.53-2.17,14,14,0,0,1,2.12-1.94,18.64,18.64,0,0,1,2.75-1.7,21.05,21.05,0,0,1,3.17-1.29,23.28,23.28,0,0,1,3.52-.82,25.24,25.24,0,0,1,7.57,0,23.34,23.34,0,0,1,3.52.82,21.05,21.05,0,0,1,3.17,1.29,18.53,18.53,0,0,1,2.74,1.7,18.16,18.16,0,0,1,2.14,1.84,12,12,0,0,1,1.57,2c0.07,0.14.46,1,.65,1.6a11.11,11.11,0,0,1,.44,2.7Z" transform="translate(-372.56 -392.19)" style="fill:#e59205"/><path d="M413.55,401.72a12.15,12.15,0,0,0-3.23-2.79,18.11,18.11,0,0,0-5.05-2.55,25.11,25.11,0,0,0-6.55-.69,24.46,24.46,0,0,0-6.4,1,16.13,16.13,0,0,0-4.65,2.33l-0.39.26a7.89,7.89,0,0,0-2.77,3.37l0,0.11a13.37,13.37,0,0,0-.55,3.08,13,13,0,0,1-.47,2.74c-0.67,1.5-2.08,2.31-3.71,3.25-0.64.37-1.29,0.74-2,1.19l-0.12.09a3,3,0,0,0-.85,2.17,3.65,3.65,0,0,0,.68,2.32c0.69,1,2.64,2.31,10.91,3.26a48.74,48.74,0,0,0,5.55.25h3.81a22.43,22.43,0,0,0,7.26-1.58l1.27-.51a12.13,12.13,0,0,0,4-2.25l0.55-.43a13.72,13.72,0,0,0,3.18-3,9.2,9.2,0,0,0,1.39-7.7,13.58,13.58,0,0,0-1.9-3.89m-1.14,10.46a12,12,0,0,1-2.76,2.6l-0.57.45a10.31,10.31,0,0,1-3.48,1.95l-1.32.53a20.37,20.37,0,0,1-6.56,1.42H394a47.18,47.18,0,0,1-5.32-.24c-7.92-.92-9.3-2.12-9.53-2.47l-0.1-.12a2,2,0,0,1,0-1.68c0.57-.38,1.17-0.72,1.75-1.05,1.8-1,3.66-2.1,4.58-4.27l0-.13a15.09,15.09,0,0,0,.54-3.18,11.34,11.34,0,0,1,.47-2.63,5.89,5.89,0,0,1,2.07-2.46l0.31-.2a14.53,14.53,0,0,1,4.09-2.08,22.6,22.6,0,0,1,5.87-1,23.26,23.26,0,0,1,6,.62,16.84,16.84,0,0,1,4.56,2.34,10.09,10.09,0,0,1,2.63,2.24,11.43,11.43,0,0,1,1.58,3.21,7.27,7.27,0,0,1-1.1,6.08" transform="translate(-372.56 -392.19)" style="fill:#e59205"/><path d="M410.38,407.72a7.13,7.13,0,0,1-1.72,3,13.57,13.57,0,0,1-3.88,2.87l0.5,0.86a14.51,14.51,0,0,0,4.11-3.06,8.16,8.16,0,0,0,1.9-3.29l-0.67-.38h-0.24" transform="translate(-372.56 -392.19)" style="fill:#e59205"/></svg>