<?xml version="1.0" encoding="utf-8"?>
<!-- Generated by IcoMoon.io -->
<!DOCTYPE svg PUBLIC "-//W3C//DTD SVG 1.1//EN" "http://www.w3.org/Graphics/SVG/1.1/DTD/svg11.dtd">
<svg version="1.1" xmlns="http://www.w3.org/2000/svg" xmlns:xlink="http://www.w3.org/1999/xlink" width="40" height="32" viewBox="0 0 40 32">
<path fill="#e59205" d="M22.61 7.799c-2.711 0-4.84 1.257-4.84 2.856s2.104 2.865 4.84 2.865 4.84-1.257 4.84-2.856-2.121-2.856-4.84-2.856zM22.61 12.673c-2.155 0-3.985-0.915-3.985-2.001s1.822-2.001 3.985-2.001 3.985 0.915 3.985 2.001-1.856 1.993-3.985 1.993z"></path>
<path fill="#e59205" d="M40.329 12.032c0.001-0.713-0.171-1.787-0.483-2.799 0.638 1.786 0.103-0.025-0.713-1.672 0.807 1.145-0.208-0.574-1.561-1.963 1.892 1.871 0.142-0.139-1.975-1.674 1.807 1.323-0.204-0.391-2.518-1.604 1.643 0.768-0.542-0.445-2.923-1.221 0.669 0.131-1.262-0.467-3.285-0.785-1.174-0.184-2.386-0.28-3.62-0.28s-2.446 0.096-3.629 0.281c0.642-0.192-1.381 0.169-3.289 0.787 1.712-0.647-0.726 0.090-2.925 1.224 1.996-1.114-0.43 0.017-2.496 1.595 1.348-1.105-0.534 0.187-2.015 1.845 0.877-1.12-0.53 0.382-1.527 2.148l-0.084 0.166c0.287-0.814-0.312 0.54-0.666 1.989-0.172 0.764-0.292 1.551-0.446 2.74-0.428 1.043-1.514 1.625-2.668 2.241l-0.257 0.137c-1.197 0.641-3.002 1.608-3.173 3.848v3.934c-0.003 0.079-0.004 0.171-0.004 0.264 0 1.017 0.19 1.991 0.536 2.886-0.121-0.136 0.192 0.487 0.635 0.993 0.501 0.939 2.362 2.4 4.563 3.090 0.046 0.181 2.969 1.042 6.041 1.424 1.63 0.23 3.779 0.39 5.961 0.408l4.554 0c0.199 0.047 2.265-0.136 4.279-0.476 0.087 0.118 1.983-0.385 3.693-1.212-2.218 1.211 0.844-0.161 3.462-2.1-1.761 1.446 0.815-0.316 2.841-2.582-0.547 0.853 1.075-0.991 2.159-3.152 0.497-0.744 1.117-2.482 1.323-4.344l0.236-3.057 0.068-2.95v-0.060zM38.559 14.948l-0.222 2.908c-0.002 0.89-0.436 2.445-1.165 3.82 0.518-0.672-0.495 1.235-1.897 2.784 1.457-1.469-0.355 0.71-2.587 2.351 1.938-1.332-0.432 0.585-3.143 1.913-0.154 0.192-1.751 0.821-3.464 1.111 0.195 0.024-1.773 0.309-3.785 0.433l-1.396 0.005c-0.906 0-1.958 0-3.096 0-1.786-0-3.851-0.137-5.875-0.402-0.219 0.13-3.053-0.416-5.698-1.359-0.756-0.033-2.433-1.020-3.631-2.427l-0.121-0.148c0.021 0.071-0.211-0.225-0.354-0.568-0.247-0.659-0.386-1.405-0.386-2.183 0-0.088 0.002-0.176 0.005-0.263l-0-3.853c0.077-1.060 0.795-1.616 2.266-2.412l0.257-0.137c1.343-0.718 2.873-1.531 3.498-3.241l0.043-0.188c0.154-1.197 0.265-1.958 0.41-2.565-0.203 0.576 0.108-0.684 0.609-1.843-0.689 1.082 0.15-0.493 1.291-1.796-1.068 1.097 0.203-0.451 1.771-1.624-1.637 1.173 0.193-0.357 2.293-1.434-1.458 0.677 0.519-0.414 2.673-1.109-0.605 0.118 1.168-0.431 3.025-0.722 1.085-0.17 2.207-0.259 3.349-0.259s2.264 0.089 3.358 0.26c-0.583-0.176 1.276 0.157 3.030 0.725-1.514-0.572 0.685 0.090 2.671 1.111-1.762-0.973 0.42 0.031 2.282 1.436-1.957-1.449 0.109-0.145 1.789 1.544-0.803-0.918 0.425 0.259 1.318 1.669 0.085 0.162 0.418 0.897 0.581 1.41 0.172 0.485 0.34 1.371 0.376 2.291z"></path>
<path fill="#e59205" d="M35.053 8.15c0.382 0.175-1.007-1.331-2.715-2.36 0.386 0.040-1.799-1.367-4.256-2.176-1.62-0.411-3.355-0.629-5.14-0.629-0.201 0-0.401 0.003-0.6 0.008-1.681 0.003-3.693 0.317-5.592 0.893 0.158-0.262-2.027 0.637-3.867 1.981l-0.294 0.195c-0.559 0.187-1.707 1.377-2.352 2.839l-0.017 0.137c-0.17 0.406-0.4 1.482-0.469 2.602 0.008 0.501-0.146 1.504-0.423 2.454-0.553 1.204-1.759 1.897-3.153 2.701-0.547 0.316-1.103 0.633-1.71 1.018l-0.103 0.077c-0.45 0.462-0.728 1.093-0.728 1.79 0 0.023 0 0.046 0.001 0.069-0.003 0.045-0.004 0.103-0.004 0.16 0 0.683 0.22 1.315 0.592 1.829 0.584 0.846 2.251 1.966 9.323 2.779 1.273 0.138 2.75 0.217 4.246 0.217 0.176 0 0.352-0.001 0.527-0.003l3.232 0c1.798-0.009 4.167-0.51 6.336-1.397l0.958-0.39c0.219 0.127 1.996-0.712 3.435-1.936l0.456-0.356c-0.431 0.525 1.368-0.816 2.699-2.538 0.93-1.294 1.474-2.875 1.474-4.584 0-0.721-0.097-1.419-0.279-2.083 0.194 0.059-0.537-1.764-1.636-3.307zM34.044 17.12c0.495-0.376-0.758 1.124-2.325 2.201l-0.522 0.407c0.029 0.168-1.344 1.124-2.914 1.649l-1.191 0.471c-1.235 0.578-3.347 1.103-5.569 1.213l-3.188 0.002c-0.137 0.002-0.298 0.003-0.459 0.003-1.441 0-2.863-0.076-4.265-0.223-6.598-0.772-7.778-1.798-7.975-2.097l-0.086-0.103c-0.1-0.211-0.158-0.458-0.158-0.718s0.058-0.508 0.163-0.729c0.483-0.315 0.996-0.605 1.492-0.887 1.539-0.855 3.13-1.796 3.917-3.652v-0.111c0.152-0.362 0.385-1.501 0.46-2.682-0.003-0.546 0.149-1.477 0.422-2.355 0.039-0.368 0.765-1.361 1.734-2.024l0.282-0.182c-0.335 0.042 1.427-1.099 3.41-1.754 1.191-0.432 3.094-0.804 5.072-0.879 0.196-0.006 0.384-0.008 0.574-0.008 1.63 0 3.213 0.196 4.729 0.566-0.333-0.315 1.911 0.618 3.804 2.001-0.241-0.329 1.152 0.622 2.197 1.873-0.012-0.236 0.853 1.144 1.343 2.69 0.152 0.549 0.228 1.099 0.228 1.667 0 1.351-0.431 2.601-1.162 3.62z"></path>
<path fill="#e59205" d="M32.342 13.281c-0.010 0.492-0.603 1.664-1.473 2.567 0.374-0.104-1.277 1.432-3.249 2.422l0.361 0.766c-0.159 0.339 1.912-0.91 3.509-2.61 0.359-0.189 1.197-1.389 1.618-2.771l-0.56-0.374h-0.205z"></path>
</svg>
