<?xml version="1.0" encoding="utf-8"?>
<!-- Generated by IcoMoon.io -->
<!DOCTYPE svg PUBLIC "-//W3C//DTD SVG 1.1//EN" "http://www.w3.org/Graphics/SVG/1.1/DTD/svg11.dtd">
<svg version="1.1" xmlns="http://www.w3.org/2000/svg" xmlns:xlink="http://www.w3.org/1999/xlink" width="34" height="32" viewBox="0 0 34 32">
<path fill="#e59205" d="M10.146 14.543c-3.905 0-7.070 1.224-7.070 2.73s3.165 2.73 7.070 2.73 7.070-1.224 7.070-2.73-3.165-2.73-7.070-2.73zM10.146 17.981c-1.667 0-3.020-0.403-3.020-0.902s1.353-0.902 3.020-0.902 3.020 0.403 3.020 0.902-1.353 0.902-3.020 0.902z"></path>
<path fill="#e59205" d="M2.867 20.405h0.805v5.637h-0.805v-5.637z"></path>
<path fill="#e59205" d="M19.052 5.226c0-1.506-3.165-2.73-7.070-2.73s-7.070 1.224-7.070 2.73 3.165 2.73 7.070 2.73 7.070-1.224 7.070-2.73zM8.938 5.041c0-0.499 1.353-0.902 3.020-0.902s3.020 0.403 3.020 0.902-1.353 0.902-3.020 0.902-3.020-0.403-3.020-0.902z"></path>
<path fill="#e59205" d="M34.464 10.146c-0.137-2.641-5.218-4.026-10.251-4.026-0.612 0-1.232 0-1.836 0.064v-2.158c-0.137-2.641-5.218-4.026-10.251-4.026s-10.267 1.417-10.267 4.123v9.663c-1.135 0.644-1.836 1.457-1.836 2.416v11.869c0.258 2.577 5.274 3.921 10.243 3.921s9.985-1.345 10.243-3.922v0-2.311c1.046 0.166 2.345 0.269 3.667 0.274 4.973 0 9.99-1.345 10.247-3.921v0-11.966zM3.446 4.131c0-1.007 3.454-2.512 8.656-2.512s8.656 1.514 8.656 2.512v2.214c-3.744 0.499-6.82 1.812-6.82 3.905v2.086c-1.087-0.159-2.342-0.25-3.617-0.25-0.019 0-0.038 0-0.057 0-0.088-0.001-0.195-0.002-0.302-0.002-2.325 0-4.566 0.357-6.673 1.019l0.157-8.973zM18.923 27.877c0 1.007-3.454 2.52-8.656 2.52s-8.656-1.514-8.656-2.512v-11.676c0-1.007 3.454-2.512 8.656-2.512s8.656 1.514 8.656 2.512v11.668zM32.862 21.918c0 0.998-3.454 2.52-8.656 2.52-0.008 0-0.016 0-0.025 0-1.287 0-2.55-0.102-3.782-0.3l0.136-8.034c-0.089-1.675-2.174-2.842-4.968-3.471v-2.416c0-0.998 3.454-2.512 8.656-2.512s8.656 1.514 8.656 2.512v11.668z"></path>
<path fill="#e59205" d="M24.060 8.616c-3.905 0-7.070 1.224-7.070 2.73s3.165 2.73 7.070 2.73 7.070-1.224 7.070-2.73-3.165-2.73-7.070-2.73zM24.060 12.054c-1.667 0-3.020-0.403-3.020-0.902s1.353-0.902 3.020-0.902 3.020 0.403 3.020 0.902-1.353 0.902-3.020 0.902z"></path>
</svg>
