<svg xmlns="http://www.w3.org/2000/svg" viewBox="0 0 42.81 39.74"><title>role</title><path d="M467.72,223c-4.85,0-8.78,1.52-8.78,3.39s3.93,3.39,8.78,3.39,8.78-1.52,8.78-3.39-3.93-3.39-8.78-3.39m0,4.27c-2.07,0-3.75-.5-3.75-1.12s1.68-1.12,3.75-1.12,3.75,0.5,3.75,1.12-1.68,1.12-3.75,1.12" transform="translate(-455.12 -204.94)" style="fill:#e59205"/><rect x="3.56" y="25.34" width="1" height="7" style="fill:#e59205"/><path d="M478.78,211.43c0-1.87-3.93-3.39-8.78-3.39s-8.78,1.52-8.78,3.39,3.93,3.39,8.78,3.39,8.78-1.52,8.78-3.39m-12.56-.23c0-.62,1.68-1.12,3.75-1.12s3.75,0.5,3.75,1.12-1.68,1.12-3.75,1.12-3.75-.5-3.75-1.12" transform="translate(-455.12 -204.94)" style="fill:#e59205"/><path d="M497.92,217.54c-0.17-3.28-6.48-5-12.73-5-0.76,0-1.53,0-2.28.08v-2.68h0c-0.17-3.28-6.48-5-12.73-5s-12.75,1.76-12.75,5.12v12c-1.41.8-2.28,1.81-2.28,3v14.74h0c0.32,3.2,6.55,4.87,12.72,4.87s12.4-1.67,12.72-4.87h0v-2.87a32.19,32.19,0,0,0,4.56.34c6.17,0,12.4-1.67,12.72-4.87h0V217.54h0Zm-38.52-7.47c0-1.25,4.29-3.12,10.75-3.12s10.75,1.88,10.75,3.12v2.75c-4.65.62-8.47,2.25-8.47,4.85v2.59a32.7,32.7,0,0,0-4.56-.31,27.6,27.6,0,0,0-8.47,1.21V210.07Zm19.22,29.49c0,1.25-4.29,3.13-10.75,3.13s-10.75-1.88-10.75-3.12V225.07c0-1.25,4.29-3.12,10.75-3.12s10.75,1.88,10.75,3.12v14.49Zm17.31-7.4c0,1.24-4.29,3.13-10.75,3.13a29.47,29.47,0,0,1-4.56-.35v-10h0c-0.11-2.08-2.7-3.53-6.17-4.31v-3c0-1.24,4.29-3.12,10.75-3.12s10.75,1.88,10.75,3.12v14.49Z" transform="translate(-455.12 -204.94)" style="fill:#e59205"/><path d="M485,215.64c-4.85,0-8.78,1.52-8.78,3.39s3.93,3.39,8.78,3.39,8.78-1.52,8.78-3.39-3.93-3.39-8.78-3.39m0,4.27c-2.07,0-3.75-.5-3.75-1.12s1.68-1.12,3.75-1.12,3.75,0.5,3.75,1.12-1.68,1.12-3.75,1.12" transform="translate(-455.12 -204.94)" style="fill:#e59205"/></svg>